<svg xmlns="http://www.w3.org/2000/svg" viewBox="0 0 476 403">
  <path d="M456.239 92.475c-12.56-12.562-27.597-18.842-45.11-18.842h-191.86v-9.136c0-17.511-6.283-32.548-18.843-45.107C187.864 6.828 172.826.544 155.315.544H63.953c-17.515 0-32.551 6.283-45.111 18.846C6.28 31.949 0 46.986 0 64.497v274.088c0 17.508 6.28 32.545 18.842 45.104 12.562 12.565 27.6 18.849 45.111 18.849h347.175c17.514 0 32.551-6.283 45.11-18.849 12.566-12.56 18.843-27.597 18.843-45.104V137.59c.001-17.512-6.276-32.548-18.842-45.115z"/>
</svg>
