<svg data-v-5ea761a3="" xmlns="http://www.w3.org/2000/svg" viewBox="0 0 455 455" class="sign__icon"><path data-v-5ea761a3="" fill-rule="nonzero" d="M0 0v455h455V0H0zm229.682 342.682c-64.173 0-115.182-51.01-115.182-115.182s51.009-115.182 115.182-115.182c31.264 0 57.591 11.518 77.336 31.264L275.754 173.2c-8.227-8.227-23.036-18.1-46.073-18.1-39.49 0-70.754 32.909-70.754 72.4 0 39.491 31.264 72.4 70.754 72.4 46.073 0 62.527-32.909 65.818-49.364h-65.818v-39.491h108.6c1.646 6.582 1.646 11.518 1.646 19.746.001 65.818-44.427 111.891-110.245 111.891z"></path></svg>
